<?xml version="1.0" encoding="UTF-8" standalone="no"?>
<!-- Created with Inkscape (http://www.inkscape.org/) -->
<svg xmlns:dc="http://purl.org/dc/elements/1.1/" xmlns:cc="http://creativecommons.org/ns#" xmlns:rdf="http://www.w3.org/1999/02/22-rdf-syntax-ns#" xmlns:svg="http://www.w3.org/2000/svg" xmlns="http://www.w3.org/2000/svg" xmlns:sodipodi="http://sodipodi.sourceforge.net/DTD/sodipodi-0.dtd" xmlns:inkscape="http://www.inkscape.org/namespaces/inkscape" width="35.608601mm" height="35.670452mm" viewBox="0 0 126.17221 126.39137" id="svg2" version="1.1" inkscape:version="0.91 r13725" sodipodi:docname="Icon-Stift.svg" inkscape:export-filename="/home/birgit/Dokumente/Brahma neu/Schule/moodle-Beratung/Lösung-Icon.png" inkscape:export-xdpi="30.171288" inkscape:export-ydpi="30.171288">
  <defs id="defs4"/>
  <sodipodi:namedview id="base" pagecolor="#ffffff" bordercolor="#666666" borderopacity="1.0" inkscape:pageopacity="0.0" inkscape:pageshadow="2" inkscape:zoom="0.18566277" inkscape:cx="-342.22157" inkscape:cy="537.068" inkscape:document-units="px" inkscape:current-layer="layer1" showgrid="false" inkscape:window-width="1366" inkscape:window-height="687" inkscape:window-x="341" inkscape:window-y="1152" inkscape:window-maximized="1" showguides="true" inkscape:guide-bbox="true" fit-margin-top="0" fit-margin-left="0" fit-margin-right="0" fit-margin-bottom="0">
    <sodipodi:guide position="-1610.2616,-111.79298" orientation="0,1" id="guide4285"/>
  </sodipodi:namedview>
  <metadata id="metadata7">
    <rdf:RDF>
      <cc:Work rdf:about="">
        <dc:format>image/svg+xml</dc:format>
        <dc:type rdf:resource="http://purl.org/dc/dcmitype/StillImage"/>
        <dc:title/>
      </cc:Work>
    </rdf:RDF>
  </metadata>
  <g inkscape:label="Ebene 1" inkscape:groupmode="layer" id="layer1" transform="translate(1180.8037,-574.52309)">
    <g id="g4283" transform="matrix(1.0287182,0,0,1.0287182,-171.91542,-16.566339)" inkscape:export-xdpi="30" inkscape:export-ydpi="30">
      <path inkscape:connector-curvature="0" id="path4233" d="m -980.08812,696.36502 c -0.80584,-1.85812 -0.76428,-1.71535 -0.32476,-6.31895 0.0908,-0.95139 0.4709,-2.28267 0.6472,-2.98666 0.1762,-0.704 0.4625,-1.856 0.6361,-2.55999 0.4303,-1.74472 0.8761,-3.39854 1.2942,-4.79999 0.1924,-0.64533 0.4274,-1.46133 0.5222,-1.81333 0.5474,-2.03295 3.3578,-10.76062 3.7886,-11.76555 0.1586,-0.36972 0.2883,-0.81473 0.2883,-0.98894 0,-0.17419 0.1434,-0.59168 0.3187,-0.92774 0.1752,-0.33609 0.3192,-0.75985 0.3199,-0.94171 0,-0.18187 0.084,-0.42188 0.186,-0.53334 0.1016,-0.11147 0.4324,-0.97066 0.7353,-1.90933 0.3028,-0.93866 0.7526,-2.23465 0.9996,-2.87998 0.247,-0.64534 0.5987,-1.60533 0.7817,-2.13334 0.3769,-1.08763 1.7097,-4.58033 1.9946,-5.22664 0.1033,-0.23467 0.3956,-0.95467 0.6493,-1.60001 0.2539,-0.64533 0.5976,-1.48392 0.7639,-1.86354 0.1664,-0.37962 0.4366,-1.00362 0.6004,-1.38667 0.3461,-0.80916 1.5001,-3.35038 2.0075,-4.4205 0.1924,-0.40558 0.5692,-1.07757 0.8374,-1.49333 0.2682,-0.41576 14.56965,-14.8433 31.781,-32.06122 24.70071,-24.71021 31.51916,-31.41826 32.36551,-31.84153 2.16704,-1.08378 5.93118,-1.5595 9.59515,-1.21265 3.14127,0.29736 7.44909,1.09003 8.23066,1.51451 0.17992,0.0977 0.65987,0.24888 1.06671,0.33601 0.40684,0.0871 0.83562,0.22681 0.953,0.31039 0.11731,0.0836 0.69334,0.325 1.27994,0.53648 5.74646,2.07151 11.587,7.0742 14.89762,12.76048 1.47106,2.52678 2.00465,3.74773 2.91506,6.67025 0.364,1.16865 0.76212,2.41282 0.88463,2.76482 0.12243,0.352 0.30659,1.26399 0.40908,2.02666 0.10249,0.76266 0.27737,1.96266 0.38866,2.66665 0.25799,1.63287 0.27088,5.89552 0.0216,7.14665 -0.10521,0.528 -0.28497,1.43999 -0.39939,2.02666 -0.11442,0.58666 -0.41301,1.48326 -0.66347,1.99242 -0.32565,0.66192 -9.34365,9.81611 -31.64111,32.1188 -17.15218,17.15616 -31.61773,31.48158 -32.14572,31.83424 -0.8883,0.59329 -2.3022,1.31182 -4.69328,2.38506 -0.52799,0.23699 -1.49725,0.67952 -2.15391,0.98339 -0.65666,0.3039 -1.31381,0.55254 -1.46042,0.55254 -0.14661,0 -0.52134,0.14176 -0.83273,0.31502 -0.31148,0.17328 -1.47828,0.66114 -2.59295,1.08418 -1.11466,0.42303 -2.31461,0.89685 -2.6666,1.05293 -0.35199,0.15607 -1.168,0.45007 -1.81337,0.65331 -0.64529,0.20326 -1.26448,0.45167 -1.37602,0.55204 -0.11146,0.10037 -0.33694,0.1825 -0.50108,0.1825 -0.16415,0 -0.60094,0.13649 -0.97063,0.3033 -0.36976,0.16682 -1.34423,0.51876 -2.1656,0.78207 -0.82129,0.26334 -1.58933,0.54776 -1.70663,0.63207 -0.1173,0.0843 -0.54937,0.22344 -0.95997,0.30922 -0.41069,0.0858 -0.84267,0.22552 -0.96005,0.31059 -0.11731,0.0851 -1.3653,0.51741 -2.77334,0.96077 -1.40797,0.44335 -2.81477,0.93869 -3.12617,1.10071 -0.3114,0.16203 -0.7963,0.2946 -1.0774,0.2946 -0.2811,0 -0.6186,0.10747 -0.7499,0.23882 -0.1314,0.13137 -0.6065,0.31741 -1.056,0.41344 -0.4494,0.096 -1.4891,0.38003 -2.3105,0.63114 -0.8213,0.25109 -1.7813,0.50912 -2.1333,0.57336 -0.352,0.0642 -0.7463,0.20109 -0.8761,0.30408 -0.1298,0.103 -0.6578,0.27822 -1.1733,0.3894 -0.5155,0.11117 -1.4652,0.35978 -2.1106,0.55249 -1.2564,0.37514 -2.8662,0.78484 -4.5866,1.16729 -0.5867,0.13041 -1.3917,0.33791 -1.789,0.46113 -0.3972,0.12321 -1.3092,0.30712 -2.0266,0.40869 -2.20044,0.40031 -4.93534,1.01644 -6.34302,-0.63422 z m 25.55044,-11.10567 c 5.219,-1.73664 5.7236,-1.91122 6.61351,-2.28837 0.36969,-0.1567 0.74891,-0.28489 0.84259,-0.28489 0.17656,0 3.49382,-1.18146 4.24513,-1.51193 0.23469,-0.10321 1.33871,-0.52685 2.45337,-0.9414 1.11467,-0.41457 2.21861,-0.843 2.4533,-0.9521 0.23469,-0.1091 0.95469,-0.41041 1.59998,-0.66958 0.64537,-0.25916 1.36097,-0.64658 1.59029,-0.86093 0.41253,-0.38571 0.41125,-0.39584 -0.12571,-0.98022 -1.55562,-1.69299 -2.26561,-3.38107 -2.46194,-5.85362 -0.16767,-2.1118 -0.26336,-2.26668 -1.19274,-1.93059 -1.05518,0.38152 -4.02702,0.3321 -5.0026,-0.0832 -2.64595,-1.12635 -3.96848,-1.99875 -5.61971,-3.70709 -1.17848,-1.21931 -2.97415,-3.96059 -2.97415,-4.54043 0,-0.1668 -0.1511,-0.60606 -0.33572,-0.97612 -0.3413,-0.6842 -0.3346,-3.30642 0.012,-4.84933 l 0.14764,-0.65666 -1.92794,-0.23739 c -2.5749,-0.31704 -3.8702,-0.80555 -5.4032,-2.03774 -1.2259,-0.98539 -1.2965,-1.01303 -1.6863,-0.66027 -0.2238,0.2025 -0.4068,0.5065 -0.4068,0.67555 0,0.16902 -0.1388,0.56215 -0.3085,0.8736 -0.3814,0.70054 -0.984,2.17661 -1.9075,4.67289 -0.5329,1.44045 -1.0223,2.70852 -1.2971,3.36085 -0.1485,0.35246 -0.3382,0.95136 -0.4215,1.33088 -0.083,0.37951 -0.2402,0.74478 -0.3485,0.81172 -0.1083,0.0669 -0.1975,0.33203 -0.1983,0.58912 0,0.25707 -0.1356,0.72495 -0.2998,1.0397 -0.1643,0.31477 -0.363,0.86566 -0.4418,1.22421 -0.079,0.35857 -0.2318,0.70668 -0.3401,0.77363 -0.1083,0.0669 -0.1969,0.31752 -0.1969,0.55688 0,0.23934 -0.1276,0.73766 -0.2836,1.10739 -0.1559,0.36975 -0.4486,1.20026 -0.6503,1.84558 -0.2016,0.64533 -0.4936,1.50933 -0.6488,1.92 -0.5111,1.35257 -0.9613,2.87067 -1.0231,3.45033 -0.052,0.49029 0.6841,1.32138 5.2452,5.91998 2.9184,2.94228 5.4289,5.34964 5.5788,5.34964 0.15,0 2.2742,-0.66603 4.7205,-1.48006 z" style="fill:#000000" sodipodi:nodetypes="cscccccsccccsccccccsssscccccccsccscscscscscccscccscscsccccccsccccccsccsccsscscscccsccscscccccccscccccscc"/>
      <path sodipodi:nodetypes="sssssssscs" inkscape:connector-curvature="0" id="rect4235-3" d="m -864.90993,593.20585 1.50238,2.72112 c 0.5499,0.99597 -0.43379,1.99463 -1.16589,2.74612 l -68.35426,70.16458 c -0.76602,0.7863 -1.89384,0.9215 -2.52902,0.30282 0,0 -0.15667,-1.41889 -0.63092,-1.87879 -0.46903,-0.45685 -1.88054,-0.56743 -1.88054,-0.56743 -0.84886,-0.25617 -0.53356,-1.75341 0.23595,-2.53631 l 70.35293,-71.57676 c 1.1078,-0.95253 2.05899,-0.11864 2.46937,0.62465 z" style="color:#000000;clip-rule:nonzero;display:inline;overflow:visible;visibility:visible;opacity:1;isolation:auto;mix-blend-mode:normal;color-interpolation:sRGB;color-interpolation-filters:linearRGB;solid-color:#000000;solid-opacity:1;fill:#ffffff;fill-opacity:1;fill-rule:evenodd;stroke:#000000;stroke-width:0.97208351;stroke-linecap:butt;stroke-linejoin:miter;stroke-miterlimit:4;stroke-dasharray:none;stroke-dashoffset:0;stroke-opacity:1;marker:none;color-rendering:auto;image-rendering:auto;shape-rendering:auto;text-rendering:auto;enable-background:accumulate"/>
      <path sodipodi:nodetypes="sssssssscs" inkscape:connector-curvature="0" id="rect4235-3-6" d="m -876.2972,581.55062 -2.72111,-1.50238 c -0.99597,-0.54991 -1.99463,0.4338 -2.74612,1.16589 l -70.16451,68.35434 c -0.7863,0.76601 -0.92149,1.89384 -0.30281,2.52902 0,0 1.41888,0.15666 1.87878,0.63091 0.45685,0.46904 0.56742,1.88055 0.56742,1.88055 0.25618,0.84886 1.75342,0.53357 2.53632,-0.23595 l 71.57668,-70.35301 c 0.95253,-1.1078 0.11864,-2.05899 -0.62465,-2.46937 z" style="color:#000000;clip-rule:nonzero;display:inline;overflow:visible;visibility:visible;opacity:1;isolation:auto;mix-blend-mode:normal;color-interpolation:sRGB;color-interpolation-filters:linearRGB;solid-color:#000000;solid-opacity:1;fill:#ffffff;fill-opacity:1;fill-rule:evenodd;stroke:#000000;stroke-width:0.97208351;stroke-linecap:butt;stroke-linejoin:miter;stroke-miterlimit:4;stroke-dasharray:none;stroke-dashoffset:0;stroke-opacity:1;marker:none;color-rendering:auto;image-rendering:auto;shape-rendering:auto;text-rendering:auto;enable-background:accumulate"/>
    </g>
    <path style="fill:#000000" d="" id="path4173" inkscape:connector-curvature="0"/>
    <g id="g4452" transform="matrix(0.36160947,0,0,0.36160947,-1405.6123,360.68288)"/>
  </g>
</svg>